<?xml version="1.0" encoding="UTF-8" standalone="no" ?>
<!DOCTYPE svg PUBLIC "-//W3C//DTD SVG 1.1//EN" "http://www.w3.org/Graphics/SVG/1.1/DTD/svg11.dtd">
<svg xmlns="http://www.w3.org/2000/svg" xmlns:xlink="http://www.w3.org/1999/xlink" version="1.1" width="46" height="46" viewBox="0 0 46 46" xml:space="preserve">
<desc>Created with Fabric.js 5.3.0</desc>
<defs>
</defs>
<g transform="matrix(0.5743702081 0 0 0.5743702081 23 23)" id="QqspqL-EGbh3SCSpUpP72"  >
<g style=""   >
		<g transform="matrix(1 0 0 1 0 23.2)" id="nq9m8lisV347OSzK5oRX0"  >
<path style="stroke: none; stroke-width: 1; stroke-dasharray: none; stroke-linecap: butt; stroke-dashoffset: 0; stroke-linejoin: miter; stroke-miterlimit: 4; fill: rgb(179,181,179); fill-rule: nonzero; opacity: 1;"  transform=" translate(-40, -63.2)" d="M 80 56.2 L 40 76.6 L 0 56.2 L 12.4 49.800000000000004 L 40 63.800000000000004 L 67.6 49.800000000000004 L 80 56.2 z" stroke-linecap="round" />
</g>
		<g transform="matrix(1 0 0 1 0 7.1)" id="Xe_WwgC_8q3pJnXIB7oAf"  >
<path style="stroke: none; stroke-width: 1; stroke-dasharray: none; stroke-linecap: butt; stroke-dashoffset: 0; stroke-linejoin: miter; stroke-miterlimit: 4; fill: rgb(179,181,179); fill-rule: nonzero; opacity: 1;"  transform=" translate(-40, -47.1)" d="M 67.6 33.7 L 40 47.8 L 12.399999999999999 33.8 L 0 40.1 L 40 60.5 L 80 40.1 L 67.6 33.7 z" stroke-linecap="round" />
</g>
		<g transform="matrix(1 0 0 1 0 -16.1)" id="XIzfPRdH82QFtjTH8PC_W"  >
<path style="stroke: none; stroke-width: 1; stroke-dasharray: none; stroke-linecap: butt; stroke-dashoffset: 0; stroke-linejoin: miter; stroke-miterlimit: 4; fill: rgb(179,181,179); fill-rule: nonzero; opacity: 1;"  transform=" translate(-40, -23.9)" d="M 40 3.4 L 0 24 L 40 44.4 L 80 24 L 40 3.4 z" stroke-linecap="round" />
</g>
</g>
</g>
</svg>